<?xml version="1.0" encoding="UTF-8"?>
<!-- Generator: Adobe Illustrator 24.1.1, SVG Export Plug-In . SVG Version: 6.00 Build 0)  -->
<svg version="1.1" id="Layer_1" xmlns="http://www.w3.org/2000/svg" xmlns:xlink="http://www.w3.org/1999/xlink" x="0px" y="0px" viewBox="0 0 200 45.4" style="enable-background:new 0 0 200 45.4;" xml:space="preserve">
<style type="text/css">
	.st0{fill:#58595B;}
	.st1{opacity:0.2;fill:#4F82BE;}
	.st2{opacity:0.5;fill:url(#SVGID_1_);}
	.st3{fill:#56B947;}
	.st4{fill:#4F82BE;}
</style>
<g>
	<g>
		<g>
			<path class="st0" d="M115.9,0.5h3.6l14.2,28.3h1.1V0.5h1.5v29.7h-3.6L118.5,1.9h-1.1v28.3h-1.5V0.5z"/>
			<path class="st0" d="M166.5,29.8c0,0-4.5,0.9-7.9,0.9c-8.8,0-10.6-5.7-10.6-15.1c0-9.3,1.5-15.4,10.6-15.4c4,0,7.9,0.8,7.9,0.8     l-0.1,1.5c0,0-4.3-0.9-7.7-0.9c-8,0-9,5.5-9,13.9c0,8.5,1.1,13.7,9,13.7c3,0,7.7-0.9,7.7-0.9L166.5,29.8z"/>
			<path class="st0" d="M196.5,16.1h-17.8v14.2h-1.5V0.5h1.5v14.1h17.8V0.5h1.5v29.7h-1.5V16.1z"/>
		</g>
		<g>
			<g>
				<path class="st0" d="M121.3,37.4c0,0.4,0.1,1.2,0.2,1.9c-0.1,0.1-0.3,0.2-0.5,0c-0.3-1-0.9-1.8-2.5-1.8c-1.5,0-3,1-3,3.4      c0,2.4,1.5,3.7,3.2,3.7c1.7,0,2.4-1.3,2.5-1.8c0.1-0.2,0.4-0.2,0.5,0c-0.1,0.8-0.4,1.6-0.6,1.9c-0.5,0.1-1.2,0.4-2.4,0.4      c-1.1,0-2.2-0.2-3.1-0.8c-1-0.7-1.7-1.7-1.7-3.1c0-1.4,0.6-2.5,1.5-3.2c0.9-0.7,2.1-1,3.4-1C120,37.1,121.1,37.4,121.3,37.4z"/>
				<path class="st0" d="M130.8,42.3c-0.4,0-0.5,0-0.6,0.4l-0.4,1.1c-0.2,0.6-0.1,0.6,0.2,0.7l0.5,0.1c0.1,0.1,0.1,0.4-0.1,0.4      c-0.4,0-0.9-0.1-1.4-0.1c-0.5,0-0.9,0-1.2,0.1c-0.2-0.1-0.2-0.4,0-0.4l0.4-0.1c0.5-0.1,0.7-0.3,1.1-1.2l1.7-4.1      c0.3-0.7,0.4-1.1,0.5-1.5c0.3-0.1,0.7-0.5,0.7-0.7c0.1-0.1,0.2,0,0.3,0.1c0.1,0.2,0.4,1.1,0.8,2.2l1.6,4.2      c0.2,0.6,0.4,0.8,1,0.9l0.3,0.1c0.2,0.1,0.1,0.4-0.1,0.4c-0.5,0-0.9-0.1-1.5-0.1c-0.6,0-1.1,0-1.6,0.1c-0.2-0.1-0.2-0.4,0-0.4      l0.4-0.1c0.5-0.1,0.4-0.2,0.2-0.7l-0.4-1.1c-0.1-0.4-0.2-0.4-0.6-0.4H130.8z M132.2,41.7c0.5,0,0.5,0,0.3-0.5l-0.5-1.5      c-0.1-0.4-0.2-0.5-0.3-0.6h0c-0.1,0.1-0.1,0.2-0.3,0.6l-0.6,1.6c-0.2,0.5-0.2,0.5,0.2,0.5H132.2z"/>
				<path class="st0" d="M143,39.4c0-1.1,0-1.4-0.4-1.5l-0.5-0.1c-0.2-0.1-0.1-0.4,0-0.4c1-0.1,1.9-0.1,2.8-0.1c1,0,1.6,0.1,2.1,0.3      c0.6,0.2,1.4,0.8,1.4,2.1c0,1.2-0.8,1.8-1.5,2c-0.6,0.2-1.3,0.3-1.6,0.3c-0.1-0.1-0.1-0.2,0-0.3c1.1-0.2,1.6-0.9,1.6-2      c0-1.2-0.7-1.8-1.9-1.8c-0.7,0-0.7,0.1-0.7,0.6v4.8c0,1.2,0.1,1.3,0.8,1.4l0.4,0.1c0.1,0.1,0.1,0.4,0,0.4      c-0.7,0-1.3-0.1-1.9-0.1c-0.6,0-1.1,0-1.7,0.1c-0.1-0.1-0.2-0.4,0-0.4l0.3-0.1c0.8-0.2,0.8-0.2,0.8-1.4V39.4z"/>
				<path class="st0" d="M155.9,39.2c0-1.2-0.1-1.3-0.8-1.4l-0.3-0.1c-0.1-0.1-0.1-0.4,0-0.4c0.7,0,1.2,0.1,1.8,0.1      c0.6,0,1.1,0,1.8-0.1c0.1,0.1,0.2,0.4,0,0.4l-0.3,0.1c-0.8,0.1-0.8,0.2-0.8,1.4v4c0,1.2,0.1,1.3,0.8,1.4l0.3,0.1      c0.1,0.1,0.1,0.4,0,0.4c-0.7,0-1.3-0.1-1.8-0.1c-0.6,0-1.1,0-1.8,0.1c-0.1-0.1-0.2-0.4,0-0.4l0.3-0.1c0.8-0.1,0.8-0.2,0.8-1.4      V39.2z"/>
				<path class="st0" d="M168.2,38.3c0-0.5,0-0.5-0.4-0.5h-0.5c-1.1,0-1.5,0.1-2,1.3c-0.2,0.1-0.4,0.1-0.4-0.1      c0.2-0.8,0.4-1.6,0.5-2.1c0.1-0.1,0.2-0.1,0.3,0c0,0.4,0.3,0.3,1,0.3h4.9c0.7,0,0.8,0,0.9-0.3c0.1-0.1,0.3,0,0.3,0.1      c-0.1,0.5-0.2,1.4-0.2,2.1c-0.1,0.1-0.4,0.2-0.4,0c-0.1-1.1-0.6-1.3-1.6-1.3h-0.6c-0.3,0-0.4,0-0.4,0.5v4.8      c0,1.2,0.1,1.3,0.8,1.4l0.5,0.1c0.1,0.1,0.1,0.4,0,0.4c-0.7,0-1.4-0.1-1.9-0.1c-0.6,0-1.2,0-1.9,0.1c-0.1-0.1-0.2-0.4,0-0.4      l0.5-0.1c0.8-0.1,0.8-0.2,0.8-1.4V38.3z"/>
				<path class="st0" d="M181,42.3c-0.4,0-0.5,0-0.6,0.4l-0.4,1.1c-0.2,0.6-0.1,0.6,0.2,0.7l0.5,0.1c0.1,0.1,0.1,0.4-0.1,0.4      c-0.4,0-0.9-0.1-1.4-0.1c-0.5,0-0.9,0-1.2,0.1c-0.2-0.1-0.2-0.4,0-0.4l0.4-0.1c0.5-0.1,0.7-0.3,1.1-1.2l1.7-4.1      c0.3-0.7,0.4-1.1,0.5-1.5c0.3-0.1,0.7-0.5,0.7-0.7c0.1-0.1,0.2,0,0.3,0.1c0.1,0.2,0.4,1.1,0.8,2.2l1.6,4.2      c0.2,0.6,0.4,0.8,1,0.9l0.3,0.1c0.2,0.1,0.1,0.4-0.1,0.4c-0.5,0-0.9-0.1-1.5-0.1c-0.6,0-1.1,0-1.6,0.1c-0.2-0.1-0.2-0.4,0-0.4      l0.4-0.1c0.5-0.1,0.4-0.2,0.2-0.7l-0.4-1.1c-0.1-0.4-0.2-0.4-0.6-0.4H181z M182.4,41.7c0.5,0,0.5,0,0.3-0.5l-0.5-1.5      c-0.1-0.4-0.2-0.5-0.3-0.6h0c-0.1,0.1-0.1,0.2-0.3,0.6l-0.6,1.6c-0.2,0.5-0.2,0.5,0.2,0.5H182.4z"/>
				<path class="st0" d="M193.9,39.2c0-1.2-0.1-1.3-0.8-1.4l-0.3-0.1c-0.1-0.1-0.1-0.4,0-0.4c0.7,0,1.2,0.1,1.8,0.1      c0.6,0,1.1,0,1.7-0.1c0.1,0.1,0.2,0.4,0,0.4l-0.2,0.1c-0.7,0.2-0.8,0.2-0.8,1.4V43c0,0.5,0,1,0.2,1.2c0.2,0.2,0.4,0.3,1.4,0.3      c1.1,0,1.7-0.1,2.2-1.5c0.1-0.1,0.4-0.1,0.5,0.1c-0.1,0.7-0.3,1.6-0.5,2c-1.1,0-2.1-0.1-3-0.1h-1.5c-0.6,0-1.1,0-1.8,0.1      c-0.1-0.1-0.2-0.4,0-0.4l0.3-0.1c0.8-0.1,0.8-0.2,0.8-1.4V39.2z"/>
			</g>
		</g>
	</g>
	<g>
		<polygon class="st1" points="106.2,17.3 0.5,0.1 48.2,33.6   "/>
		<linearGradient id="SVGID_1_" gradientUnits="userSpaceOnUse" x1="63.7938" y1="17.9599" x2="106.2636" y2="17.9599">
			<stop offset="0" style="stop-color:#FFFFFF;stop-opacity:0.66"/>
			<stop offset="0.1045" style="stop-color:#E5F2DF;stop-opacity:0.7011"/>
			<stop offset="0.3866" style="stop-color:#ACD69B;stop-opacity:0.8121"/>
			<stop offset="0.6157" style="stop-color:#81C56B;stop-opacity:0.9022"/>
			<stop offset="0.7804" style="stop-color:#64BC4F;stop-opacity:0.9669"/>
			<stop offset="0.8644" style="stop-color:#56B947"/>
		</linearGradient>
		<polygon class="st2" points="106.3,17.2 98.4,35.8 63.8,0.1   "/>
		<polygon class="st3" points="98.5,36.1 77.9,45.3 106.3,17.2   "/>
		<polygon class="st4" points="48.2,33.6 77.9,45.3 106.3,17.2   "/>
	</g>
</g>
</svg>